<?xml version="1.0" encoding="UTF-8" standalone="no"?>
<svg
   version="1.0"
   width="1800pt"
   height="800pt"
   viewBox="0 0 1800 800"
   preserveAspectRatio="xMidYMid"
   id="svg24"
   sodipodi:docname="Michi_Playlist_Logo.svg"
   inkscape:version="1.4 (86a8ad7, 2024-10-11)"
   xmlns:inkscape="http://www.inkscape.org/namespaces/inkscape"
   xmlns:sodipodi="http://sodipodi.sourceforge.net/DTD/sodipodi-0.dtd"
   xmlns="http://www.w3.org/2000/svg"
   xmlns:svg="http://www.w3.org/2000/svg">
  <defs
     id="defs24" />
  <sodipodi:namedview
     id="namedview24"
     pagecolor="#ffffff"
     bordercolor="#000000"
     borderopacity="0.25"
     inkscape:showpageshadow="2"
     inkscape:pageopacity="0.0"
     inkscape:pagecheckerboard="0"
     inkscape:deskcolor="#d1d1d1"
     inkscape:document-units="pt"
     inkscape:zoom="0.24"
     inkscape:cx="1364.5833"
     inkscape:cy="1335.4167"
     inkscape:window-width="1920"
     inkscape:window-height="1009"
     inkscape:window-x="-8"
     inkscape:window-y="-8"
     inkscape:window-maximized="1"
     inkscape:current-layer="svg24" />
  <g
     transform="matrix(0.1,0,0,-0.1,-150.25714,1465.2023)"
     fill="#000000"
     stroke="none"
     id="g24"
     style="fill:#000080">
    <path
       d="m 9403,12806 c -67,-30 -64,53 -61,-1286 l 3,-1210 26,-26 c 16,-16 41,-28 67,-31 37,-5 45,-2 77,30 l 35,35 1,248 c 0,269 5,303 50,337 21,15 31,17 48,8 45,-25 46,-32 51,-509 l 5,-454 33,-29 c 44,-39 90,-39 134,0 l 33,29 5,299 5,298 30,60 c 21,42 46,73 85,103 30,24 68,54 83,67 l 28,24 61,-42 c 96,-66 164,-136 177,-182 6,-22 11,-109 11,-193 0,-171 8,-200 61,-228 40,-20 88,-12 120,22 23,24 24,34 30,197 6,177 16,224 57,271 26,29 92,56 141,56 34,0 42,3 37,15 -3,8 -11,51 -18,96 -8,49 -18,84 -26,87 -8,3 -44,0 -81,-7 -58,-10 -117,-36 -186,-80 -18,-11 -27,-8 -73,21 -139,88 -147,95 -174,148 l -28,52 v 223 c 0,134 -4,235 -11,252 -34,90 -136,109 -186,34 -16,-23 -19,-57 -23,-276 -5,-222 -7,-254 -25,-290 -19,-39 -87,-115 -103,-115 -4,0 -13,19 -19,43 -17,60 -65,131 -113,166 -48,35 -125,54 -181,45 l -39,-7 v 811 c 0,491 -4,821 -10,836 -18,49 -85,74 -137,52 z"
       id="path1"
       style="fill:#000080" />
    <path
       d="m 8691,12334 c -51,-36 -51,-32 -51,-774 0,-379 -3,-690 -8,-690 -24,0 -83,55 -103,97 -22,45 -24,64 -29,266 l -5,219 -33,29 c -44,39 -90,39 -134,0 l -33,-29 -6,-229 c -4,-178 -9,-236 -21,-265 -17,-38 -43,-58 -76,-58 -40,0 -47,26 -52,187 -5,155 -5,155 -33,179 -20,17 -40,24 -68,24 -92,0 -109,-33 -109,-217 0,-76 -3,-148 -6,-161 -4,-14 -25,-32 -56,-48 -150,-76 -198,-187 -198,-460 0,-73 -3,-94 -17,-105 -13,-12 -305,-14 -1834,-11 -1245,2 -1845,-1 -1904,-8 -47,-6 -111,-20 -142,-31 -60,-23 -156,-95 -161,-122 -3,-16 126,-17 2045,-17 1959,0 2050,1 2088,19 43,19 99,77 117,120 7,14 14,98 18,186 7,182 15,208 81,252 100,66 241,27 290,-82 16,-35 19,-69 19,-290 0,-232 2,-252 20,-283 36,-59 113,-67 161,-16 l 24,26 6,336 c 3,185 6,338 7,338 1,1 23,-9 49,-22 25,-13 59,-24 75,-24 h 28 v -119 c 0,-66 4,-131 9,-144 27,-71 118,-92 171,-39 23,24 29,41 35,97 11,101 -2,1796 -14,1827 -21,54 -100,76 -150,42 z"
       id="path2"
       style="fill:#000080" />
    <path
       d="m 11228,12083 c -64,-69 -98,-183 -98,-329 0,-89 19,-244 35,-286 4,-9 -22,-47 -66,-99 -159,-184 -226,-330 -217,-477 6,-98 38,-172 108,-246 95,-101 232,-150 351,-127 34,7 65,9 69,4 15,-16 60,-231 60,-287 0,-95 -46,-162 -128,-187 -44,-13 -106,0 -144,30 l -23,19 28,-5 c 63,-12 117,39 117,112 0,71 -41,114 -108,115 -37,0 -50,-6 -78,-34 -34,-34 -40,-56 -35,-121 8,-90 104,-165 212,-165 51,0 132,44 163,89 56,81 58,128 11,321 -21,84 -32,146 -26,148 40,13 103,79 131,136 30,60 32,71 28,148 -2,53 -10,96 -22,120 -44,91 -148,158 -247,158 h -55 l -23,94 -22,94 51,64 c 98,121 140,236 140,384 0,168 -84,354 -160,354 -16,0 -37,-11 -52,-27 z m 108,-101 c 54,-36 52,-170 -6,-298 -30,-68 -106,-184 -119,-184 -24,0 -28,214 -6,308 19,78 47,134 81,161 29,23 34,24 50,13 z m -76,-868 c 0,-6 -13,-17 -30,-24 -44,-18 -107,-92 -120,-142 -26,-95 14,-218 82,-251 46,-22 51,-13 13,27 -53,56 -56,120 -8,184 26,34 81,74 93,67 10,-6 105,-393 99,-399 -15,-15 -113,-25 -159,-16 -192,36 -306,228 -240,402 27,74 82,156 162,243 l 63,68 22,-74 c 13,-41 23,-79 23,-85 z m 169,-153 c 19,-9 48,-33 65,-54 27,-33 31,-48 34,-111 4,-80 -13,-129 -62,-175 l -25,-24 -11,27 c -5,15 -23,80 -40,144 -16,64 -36,138 -43,164 -8,26 -12,49 -9,52 7,8 51,-3 91,-23 z"
       id="path3"
       style="fill:#000080" />
    <path
       d="m 9024,11626 -34,-34 v -1061 c 0,-1142 -2,-1103 49,-1131 26,-13 74,-13 106,2 57,26 55,-24 55,1123 0,758 -3,1062 -11,1078 -19,36 -52,57 -92,57 -31,0 -46,-7 -73,-34 z"
       id="path4"
       style="fill:#000080" />
    <path
       d="m 6670,11390 v -240 h -136 c -120,0 -135,-2 -130,-16 3,-9 6,-18 6,-20 0,-2 59,-4 130,-4 h 130 v -65 -65 h -365 -365 v -25 -25 h 365 365 v -34 -34 l -52,15 c -65,19 -138,6 -197,-38 l -41,-29 h -465 -465 v -25 -25 h 444 444 l -5,-39 c -3,-21 0,-48 6,-60 l 12,-21 h -486 -485 v -25 -24 l 563,-3 c 309,-2 797,-2 1085,0 l 522,3 v 24 25 h -451 -451 l 31,35 c 17,20 34,46 37,60 l 6,25 412,2 411,3 3,22 3,23 -413,2 -413,3 -3,58 -3,57 h 416 415 v 25 25 h -415 -415 v 65 65 h 415 415 v 25 25 h -415 -415 v 235 235 h -25 -25 z"
       id="path5"
       style="fill:#000080" />
    <path
       d="m 12640,10834 v -295 l -22,8 c -42,15 -113,7 -157,-18 -95,-53 -108,-150 -26,-185 70,-29 157,-6 208,55 l 27,33 v 169 c 0,143 2,169 15,169 26,0 116,-38 156,-66 50,-34 76,-98 60,-145 -14,-42 -8,-47 18,-13 52,66 15,144 -120,255 -92,74 -143,138 -126,155 8,9 121,-31 172,-60 50,-30 79,-82 73,-132 -5,-40 3,-44 22,-10 19,37 7,102 -28,145 -16,20 -65,62 -109,93 -45,32 -95,76 -113,98 -17,22 -36,40 -41,40 -5,0 -9,-123 -9,-296 z"
       id="path6"
       style="fill:#000080" />
    <path
       d="m 14160,11009 c -74,-10 -649,-69 -667,-69 -10,0 -13,-80 -14,-362 0,-339 -5,-419 -23,-390 -3,6 -26,14 -50,17 -123,19 -257,-95 -226,-191 29,-87 164,-103 267,-31 70,49 67,32 73,452 l 5,380 330,37 c 182,20 347,37 368,37 l 37,1 v -314 -314 l -42,15 c -152,52 -332,-125 -230,-227 55,-55 157,-51 240,10 76,55 77,57 80,395 2,165 1,360 -3,433 l -7,132 -37,-1 c -20,-1 -65,-5 -101,-10 z"
       id="path7"
       style="fill:#000080" />
    <path
       d="m 11638,10619 -47,-69 82,-41 c 45,-23 156,-87 247,-142 681,-414 910,-531 1165,-596 297,-74 594,-44 869,90 80,39 209,119 203,125 -2,2 -43,-10 -92,-26 -263,-89 -577,-102 -851,-35 -233,56 -503,179 -889,405 -307,180 -627,361 -636,360 -2,-1 -25,-32 -51,-71 z"
       id="path8"
       style="fill:#000080" />
    <path
       d="m 5043,10462 c -15,-2 -23,-10 -23,-23 0,-19 22,-19 1270,-19 1263,0 1270,0 1270,20 0,20 -7,20 -1067,21 -588,1 -1149,2 -1248,3 -99,1 -190,0 -202,-2 z"
       id="path9"
       style="fill:#000080" />
    <path
       d="m 17350,10329 c 0,-2 11,-26 25,-53 45,-89 28,-204 -41,-268 -41,-38 -120,-75 -200,-94 -55,-13 -103,-15 -234,-11 -197,6 -337,33 -662,127 -117,34 -271,79 -343,100 -154,45 -325,84 -467,107 -144,23 -449,23 -578,-1 -113,-20 -303,-82 -391,-127 -65,-32 -199,-115 -199,-123 0,-2 28,5 63,16 240,75 449,104 682,95 251,-10 456,-53 973,-203 436,-127 717,-184 895,-184 141,0 322,42 412,94 55,33 122,106 148,164 33,72 31,189 -5,263 -22,44 -78,115 -78,98 z"
       id="path10"
       style="fill:#000080" />
    <path
       d="m 9954,9726 c -129,-29 -215,-96 -267,-205 -25,-52 -31,-80 -35,-159 -3,-64 -2,-93 5,-89 6,4 14,22 17,40 10,51 68,112 144,149 l 66,33 294,3 294,3 52,-25 c 69,-35 99,-80 104,-161 5,-79 -16,-127 -71,-163 -38,-25 -49,-27 -174,-30 l -133,-4 v 136 136 h -132 -131 l 6,-142 c 4,-79 7,-275 7,-436 v -293 l 123,3 122,3 2,185 2,185 108,-3 c 143,-4 232,10 320,53 82,40 124,84 164,170 73,156 46,360 -65,482 -40,45 -132,98 -210,121 -73,21 -526,27 -612,8 z"
       id="path11"
       style="fill:#000080" />
    <path
       d="m 6252,9690 c -233,-63 -403,-243 -448,-475 -51,-264 82,-538 317,-654 108,-53 183,-71 289,-71 104,0 193,20 279,63 69,34 174,124 204,175 l 17,31 -47,27 c -27,15 -74,45 -105,66 l -57,38 -46,-46 c -25,-25 -72,-58 -103,-72 -49,-23 -70,-27 -147,-27 -114,0 -173,24 -245,101 -78,83 -95,128 -95,254 0,94 3,111 27,160 35,72 99,136 168,169 47,22 68,26 150,26 113,0 163,-19 238,-89 l 49,-46 99,58 c 54,32 99,63 101,69 7,20 -95,130 -159,172 -89,59 -170,82 -303,87 -88,3 -125,0 -183,-16 z"
       id="path12"
       style="fill:#000080" />
    <path
       d="m 3680,9681 c 0,-4 -9,-74 -21,-156 -30,-217 -116,-995 -110,-1000 2,-3 60,-5 128,-5 92,0 123,3 123,13 0,6 16,156 35,332 19,176 35,336 35,355 0,20 4,30 9,25 5,-6 60,-145 121,-310 62,-165 119,-312 126,-327 14,-28 15,-28 123,-28 h 108 l 23,58 c 25,63 191,502 216,571 12,30 19,39 24,30 4,-8 25,-173 46,-366 l 38,-353 h 128 c 101,0 128,3 128,13 0,23 -88,689 -122,925 l -32,222 h -135 -136 l -129,-348 c -72,-191 -136,-362 -144,-381 l -14,-35 -147,385 -148,384 -137,1 c -75,1 -136,-1 -136,-5 z"
       id="path13"
       style="fill:#000080" />
    <path
       d="m 7156,9681 c -4,-6 -4,-270 0,-586 l 7,-575 h 124 123 v 230 229 l 230,3 230,3 1,-175 c 0,-96 1,-200 2,-230 l 2,-55 128,-3 127,-3 v 581 580 h -130 -130 v -235 -235 h -230 -230 v 235 235 h -109 c -60,0 -116,3 -124,6 -8,3 -18,1 -21,-5 z"
       id="path14"
       style="fill:#000080" />
    <path
       d="m 5250,9100 v -580 h 125 125 v 580 580 h -125 -125 z"
       id="path15"
       style="fill:#000080" />
    <path
       d="m 8480,9100 v -580 h 125 125 v 580 580 h -125 -125 z"
       id="path16"
       style="fill:#000080" />
    <path
       d="m 15775,9616 c -70,-22 -121,-54 -161,-99 -50,-57 -74,-125 -74,-207 1,-155 95,-248 330,-325 109,-36 153,-58 179,-91 25,-32 27,-81 5,-113 -20,-28 -88,-60 -130,-61 -85,0 -197,64 -224,130 -7,16 -16,30 -20,30 -12,0 -180,-121 -180,-129 0,-16 60,-98 96,-133 88,-83 248,-130 379,-111 140,20 253,94 301,197 18,39 24,68 24,126 0,167 -91,262 -327,344 -126,43 -156,58 -182,92 -55,70 8,154 116,154 52,-1 119,-33 158,-76 l 33,-36 91,52 c 84,49 90,54 79,74 -42,79 -128,149 -219,177 -71,22 -212,25 -274,5 z"
       id="path17"
       style="fill:#000080" />
    <path
       d="m 11114,9601 c -7,-7 -5,-782 3,-934 l 6,-137 h 344 343 v 105 105 l -222,1 c -123,1 -226,1 -229,1 -4,-1 -10,191 -14,426 -4,235 -8,428 -9,428 -4,4 -218,9 -222,5 z"
       id="path18"
       style="fill:#000080" />
    <path
       d="m 12311,9533 c -43,-104 -370,-918 -387,-965 l -13,-38 h 127 128 l 36,98 36,97 h 228 228 l 36,-95 36,-95 131,-3 131,-3 -118,293 c -65,161 -153,376 -195,478 -43,102 -89,213 -103,248 l -25,62 h -122 -121 z m 179,-248 c 7,-22 39,-110 71,-194 32,-85 57,-156 55,-158 -2,-2 -71,-2 -153,-1 l -150,3 68,190 c 38,105 72,196 75,204 7,20 19,4 34,-44 z"
       id="path19"
       style="fill:#000080" />
    <path
       d="m 12920,9604 c 0,-3 8,-18 19,-32 10,-15 79,-133 154,-263 74,-130 154,-266 176,-303 l 41,-66 v -205 -205 h 120 120 v 204 204 l 59,99 c 243,408 326,550 329,561 3,9 -28,12 -130,12 h -133 l -26,-48 c -14,-26 -67,-125 -118,-219 -52,-95 -96,-173 -100,-173 -3,0 -32,49 -63,108 -32,59 -86,157 -121,217 l -63,110 -132,3 c -73,1 -132,0 -132,-4 z"
       id="path20"
       style="fill:#000080" />
    <path
       d="m 15030,9600 c 0,-3 -2,-86 -6,-185 -3,-99 -2,-339 1,-532 l 8,-353 h 115 115 l -7,38 c -3,20 -6,262 -6,537 v 500 h -110 c -60,0 -110,-2 -110,-5 z"
       id="path21"
       style="fill:#000080" />
    <path
       d="m 16430,9505 v -105 h 134 c 74,0 141,-3 150,-6 14,-5 16,-53 16,-435 v -429 h 115 115 l 2,433 3,432 148,-4 147,-4 v 112 111 h -415 -415 z"
       id="path22"
       style="fill:#000080" />
    <path
       d="m 14120,9065 v -535 h 350 350 v 105 105 l -232,2 -233,3 -3,428 -2,427 h -115 -115 z"
       id="path23"
       style="fill:#000080" />
    <path
       d="m 9060,8930 v -100 h 300 300 v 100 100 h -300 -300 z"
       id="path24"
       style="fill:#000080" />
  </g>
</svg>
